<svg version="1.2" xmlns="http://www.w3.org/2000/svg" viewBox="0 0 800 354" width="800" height="354">
	<style>
		.s0 { fill: #ffffff } 
		.s1 { fill: #4285f4 } 
		.s2 { fill: #34a853 } 
		.s3 { fill: #fbbc04 } 
		.s4 { fill: #ea4335 } 
	</style>
	<g id="SVGRepo_bgCarrier">
	</g>
	<g id="SVGRepo_tracerCarrier">
	</g>
	<g id="SVGRepo_iconCarrier">
		<g>
			<path class="s0" d="m378.26 176.38v93.07h-29.55v-229.89h78.33c18.89-0.4 37.15 6.77 50.72 19.9 13.73 12.37 21.47 30.05 21.17 48.51 0.4 18.6-7.34 36.42-21.17 48.81q-20.57 19.61-50.72 19.57zm0-108.51v80.27h49.51c10.99 0.33 21.57-3.99 29.21-11.9 15.51-15.07 15.88-39.9 0.77-55.41-0.27-0.26-0.5-0.53-0.77-0.77-7.54-8.07-18.19-12.49-29.21-12.19zm188.74 39.16q32.76 0 51.69 17.49c12.63 11.66 18.93 27.67 18.93 47.97v96.95h-28.24v-21.84h-1.27q-18.35 26.98-48.81 26.97-25.99 0.01-43.49-15.41c-11.32-9.55-17.75-23.69-17.48-38.53q0-24.41 18.46-38.82 18.43-14.43 49.28-14.44c17.52 0 31.99 3.21 43.31 9.61v-6.77c0.07-10.11-4.42-19.69-12.19-26.13-7.81-7.03-17.99-10.88-28.51-10.75q-24.73 0.01-39.16 20.87l-26-16.38q21.41-30.8 63.48-30.79zm-38.22 114.27c-0.03 7.64 3.62 14.81 9.78 19.27 6.53 5.12 14.64 7.87 22.95 7.7 12.46-0.03 24.42-4.99 33.23-13.8 9.78-9.21 14.68-20 14.68-32.43q-13.82-11.01-38.53-11.02-18-0.01-30.02 8.67c-8.07 5.9-12.09 13.04-12.09 21.61zm270.99-109.14l-98.6 226.63h-30.48l36.58-79.3-64.86-147.33h32.1l46.86 113h0.64l45.6-113z"/>
		</g>
		<path class="s1" d="m258.89 156.28c0-9.01-0.73-17.99-2.27-26.87h-124.56v50.86h71.32c-2.94 16.41-12.46 30.92-26.36 40.13v33.03h42.58c24.92-22.94 39.29-56.95 39.29-97.15z"/>
		<path class="s2" d="m132.06 285.36c35.65 0 65.66-11.69 87.54-31.89l-42.58-33.03c-11.86 8.04-27.1 12.63-44.96 12.63-34.44 0-63.68-23.22-74.14-54.51h-43.85v34.04c22.41 44.62 68.07 72.76 117.99 72.76z"/>
		<path class="s3" d="m57.92 178.56c-5.52-16.38-5.52-34.17 0-50.55v-34.04h-43.85c-18.76 37.32-18.76 81.31 0 118.63z"/>
		<path class="s4" d="m132.06 73.5c18.83-0.3 37.02 6.8 50.65 19.8l37.73-37.69c-23.92-22.44-55.58-34.77-88.38-34.4-49.92 0-95.58 28.17-117.99 72.76l43.85 34.04c10.46-31.29 39.7-54.51 74.14-54.51z"/>
	</g>
</svg>