<svg version="1.2" xmlns="http://www.w3.org/2000/svg" viewBox="0 0 608 423" width="608" height="423">
	<style>
		.s0 { fill: #ff5f00 } 
		.s1 { fill: #eb001b } 
		.s2 { fill: #f79e1b } 
	</style>
	<path class="s0" d="m387.24 336.81h-142.77v-254.68h142.77z"/>
	<path class="s1" d="m253.62 209.45c0-51.66 24.37-97.68 62.32-127.34-27.75-21.68-62.78-34.63-100.84-34.63-90.12 0-163.17 72.52-163.17 161.97 0 89.46 73.05 161.97 163.17 161.97 38.06 0 73.09-12.94 100.84-34.63-37.95-29.65-62.32-75.67-62.32-127.34z"/>
	<path class="s2" d="m579.8 209.45c0 89.46-73.05 161.97-163.16 161.97-38.07 0-73.09-12.94-100.86-34.63 37.96-29.65 62.33-75.67 62.33-127.34 0-51.66-24.37-97.68-62.33-127.34 27.77-21.68 62.79-34.63 100.86-34.63 90.11 0 163.16 72.52 163.16 161.97z"/>
</svg>